<?xml version="1.0" encoding="iso-8859-1"?>
<!-- Uploaded to: SVG Repo, www.svgrepo.com, Generator: SVG Repo Mixer Tools -->
<svg fill="#000000" height="800px" width="800px" version="1.1" id="Capa_1" xmlns="http://www.w3.org/2000/svg" xmlns:xlink="http://www.w3.org/1999/xlink" 
	 viewBox="0 0 511 511" xml:space="preserve">
<g>
	<path d="M39.5,103c1.97,0,3.91-0.8,5.3-2.2c1.4-1.39,2.2-3.33,2.2-5.3s-0.8-3.91-2.2-5.3c-1.39-1.4-3.33-2.2-5.3-2.2
		c-1.97,0-3.91,0.8-5.3,2.2c-1.4,1.39-2.2,3.33-2.2,5.3s0.8,3.91,2.2,5.3C35.59,102.2,37.52,103,39.5,103z"/>
	<path d="M63.5,103c1.97,0,3.91-0.8,5.3-2.2c1.4-1.39,2.2-3.33,2.2-5.3s-0.8-3.91-2.2-5.3c-1.39-1.4-3.33-2.2-5.3-2.2
		c-1.97,0-3.91,0.8-5.3,2.2c-1.4,1.39-2.2,3.33-2.2,5.3s0.8,3.91,2.2,5.3C59.59,102.2,61.53,103,63.5,103z"/>
	<path d="M87.5,103c1.97,0,3.91-0.8,5.3-2.2c1.4-1.39,2.2-3.33,2.2-5.3s-0.8-3.91-2.2-5.3c-1.39-1.4-3.33-2.2-5.3-2.2
		c-1.97,0-3.91,0.8-5.3,2.2c-1.4,1.39-2.2,3.33-2.2,5.3s0.8,3.91,2.2,5.3C83.59,102.2,85.53,103,87.5,103z"/>
	<path d="M119.5,103h304c4.142,0,7.5-3.358,7.5-7.5s-3.358-7.5-7.5-7.5h-304c-4.142,0-7.5,3.358-7.5,7.5S115.358,103,119.5,103z"/>
	<path d="M455.5,103h16c4.142,0,7.5-3.358,7.5-7.5s-3.358-7.5-7.5-7.5h-16c-4.142,0-7.5,3.358-7.5,7.5S451.358,103,455.5,103z"/>
	<path d="M47.5,175h56c4.142,0,7.5-3.358,7.5-7.5s-3.358-7.5-7.5-7.5h-56c-4.142,0-7.5,3.358-7.5,7.5S43.358,175,47.5,175z"/>
	<path d="M103.5,200h-56c-4.142,0-7.5,3.358-7.5,7.5s3.358,7.5,7.5,7.5h56c4.142,0,7.5-3.358,7.5-7.5S107.642,200,103.5,200z"/>
	<path d="M103.5,240h-56c-4.142,0-7.5,3.358-7.5,7.5s3.358,7.5,7.5,7.5h56c4.142,0,7.5-3.358,7.5-7.5S107.642,240,103.5,240z"/>
	<path d="M103.5,280h-56c-4.142,0-7.5,3.358-7.5,7.5s3.358,7.5,7.5,7.5h56c4.142,0,7.5-3.358,7.5-7.5S107.642,280,103.5,280z"/>
	<path d="M231.5,175h56c4.142,0,7.5-3.358,7.5-7.5s-3.358-7.5-7.5-7.5h-56c-4.142,0-7.5,3.358-7.5,7.5S227.358,175,231.5,175z"/>
	<path d="M231.5,215h120c4.142,0,7.5-3.358,7.5-7.5s-3.358-7.5-7.5-7.5h-120c-4.142,0-7.5,3.358-7.5,7.5S227.358,215,231.5,215z"/>
	<path d="M231.5,255h88c4.142,0,7.5-3.358,7.5-7.5s-3.358-7.5-7.5-7.5h-88c-4.142,0-7.5,3.358-7.5,7.5S227.358,255,231.5,255z"/>
	<path d="M423.5,280h-192c-4.142,0-7.5,3.358-7.5,7.5s3.358,7.5,7.5,7.5h192c4.142,0,7.5-3.358,7.5-7.5S427.642,280,423.5,280z"/>
	<path d="M199.5,360h-16c-4.142,0-7.5,3.358-7.5,7.5s3.358,7.5,7.5,7.5h16c4.142,0,7.5-3.358,7.5-7.5S203.642,360,199.5,360z"/>
	<path d="M199.5,400h-16c-4.142,0-7.5,3.358-7.5,7.5s3.358,7.5,7.5,7.5h16c4.142,0,7.5-3.358,7.5-7.5S203.642,400,199.5,400z"/>
	<path d="M231.5,375h16c4.142,0,7.5-3.358,7.5-7.5s-3.358-7.5-7.5-7.5h-16c-4.142,0-7.5,3.358-7.5,7.5S227.358,375,231.5,375z"/>
	<path d="M263.5,400h-32c-4.142,0-7.5,3.358-7.5,7.5s3.358,7.5,7.5,7.5h32c4.142,0,7.5-3.358,7.5-7.5S267.642,400,263.5,400z"/>
	<path d="M399.5,360h-120c-4.142,0-7.5,3.358-7.5,7.5s3.358,7.5,7.5,7.5h120c4.142,0,7.5-3.358,7.5-7.5S403.642,360,399.5,360z"/>
	<path d="M343.5,400h-48c-4.142,0-7.5,3.358-7.5,7.5s3.358,7.5,7.5,7.5h48c4.142,0,7.5-3.358,7.5-7.5S347.642,400,343.5,400z"/>
	<path d="M199.5,160h-16c-4.142,0-7.5,3.358-7.5,7.5s3.358,7.5,7.5,7.5h16c4.142,0,7.5-3.358,7.5-7.5S203.642,160,199.5,160z"/>
	<path d="M199.5,200h-16c-4.142,0-7.5,3.358-7.5,7.5s3.358,7.5,7.5,7.5h16c4.142,0,7.5-3.358,7.5-7.5S203.642,200,199.5,200z"/>
	<path d="M199.5,240h-16c-4.142,0-7.5,3.358-7.5,7.5s3.358,7.5,7.5,7.5h16c4.142,0,7.5-3.358,7.5-7.5S203.642,240,199.5,240z"/>
	<path d="M199.5,280h-16c-4.142,0-7.5,3.358-7.5,7.5s3.358,7.5,7.5,7.5h16c4.142,0,7.5-3.358,7.5-7.5S203.642,280,199.5,280z"/>
	<path d="M103.5,320h-56c-4.142,0-7.5,3.358-7.5,7.5s3.358,7.5,7.5,7.5h56c4.142,0,7.5-3.358,7.5-7.5S107.642,320,103.5,320z"/>
	<path d="M103.5,360h-56c-4.142,0-7.5,3.358-7.5,7.5s3.358,7.5,7.5,7.5h56c4.142,0,7.5-3.358,7.5-7.5S107.642,360,103.5,360z"/>
	<path d="M103.5,400h-56c-4.142,0-7.5,3.358-7.5,7.5s3.358,7.5,7.5,7.5h56c4.142,0,7.5-3.358,7.5-7.5S107.642,400,103.5,400z"/>
	<path d="M471.5,56h-432C17.72,56,0,73.72,0,95.5v320C0,437.28,17.72,455,39.5,455h432c21.78,0,39.5-17.72,39.5-39.5v-320
		C511,73.72,493.28,56,471.5,56z M151,135h345v185H151V135z M39.5,71h432c13.509,0,24.5,10.991,24.5,24.5V120H15V95.5
		C15,81.991,25.991,71,39.5,71z M15,415.5V135h121v305H39.5C25.991,440,15,429.009,15,415.5z M471.5,440H151V335h345v80.5
		C496,429.009,485.009,440,471.5,440z"/>
</g>
</svg>